<?xml version="1.0" encoding="utf-8"?><!-- Uploaded to: SVG Repo, www.svgrepo.com, Generator: SVG Repo Mixer Tools -->
<svg width="800px" height="800px" viewBox="0 0 24 24" fill="none" xmlns="http://www.w3.org/2000/svg">
<path d="M17 22.71H7C6.00887 22.7153 5.05594 22.3281 4.34949 21.6329C3.64305 20.9377 3.24056 19.9911 3.23 19V5C3.24056 4.00891 3.64305 3.06231 4.34949 2.36711C5.05594 1.67191 6.00887 1.28466 7 1.29H17C17.9911 1.28466 18.9441 1.67191 19.6505 2.36711C20.357 3.06231 20.7594 4.00891 20.77 5V19C20.7594 19.9911 20.357 20.9377 19.6505 21.6329C18.9441 22.3281 17.9911 22.7153 17 22.71ZM7 2.79C6.40668 2.78463 5.83525 3.01385 5.41011 3.42775C4.98497 3.84166 4.74053 4.40674 4.73 5V19C4.74053 19.5933 4.98497 20.1583 5.41011 20.5722C5.83525 20.9862 6.40668 21.2154 7 21.21H17C17.5933 21.2154 18.1648 20.9862 18.5899 20.5722C19.015 20.1583 19.2595 19.5933 19.27 19V5C19.2595 4.40674 19.015 3.84166 18.5899 3.42775C18.1648 3.01385 17.5933 2.78463 17 2.79H7Z" fill="#000000"/>
</svg>