<svg version="1.0" xmlns="http://www.w3.org/2000/svg" width="256.000000pt" height="256.000000pt" viewBox="0 0 256.000000 256.000000" preserveAspectRatio="xMidYMid meet" style="width: 88.0233px; height: auto;"> <g transform="translate(0.000000,256.000000) scale(0.100000,-0.100000)" fill="#000000" stroke="none"> <path d="M1205 2280 c-249 -70 -353 -94 -498 -113 -95 -13 -112 -18 -138 -43 -16 -16 -32 -38 -35 -50 -5 -17 -29 -30 -128 -63 -142 -49 -179 -69 -206 -113 -38 -63 -46 -36 160 -638 78 -228 155 -453 170 -500 109 -332 150 -435 184 -466 55 -52 93 -52 232 -4 66 23 133 44 149 47 17 3 134 -9 260 -26 761 -102 709 -99 768 -44 49 47 38 -8 127 648 29 213 80 586 115 833 21 146 20 181 -10 224 -31 46 -74 62 -227 84 l-118 17 0 35 c0 49 -33 97 -85 122 -42 20 -48 21 -191 9 -113 -9 -149 -9 -152 0 -16 47 -94 102 -144 100 -13 0 -117 -27 -233 -59z m268 -37 l32 -18 -109 -7 c-61 -4 -111 -6 -113 -4 -4 3 130 43 150 45 4 1 22 -7 40 -16z m447 -116 c8 -14 11 -29 7 -33 -4 -4 -86 3 -182 16 -96 13 -172 26 -169 29 9 9 287 27 309 20 11 -3 27 -18 35 -32z m-934 -26 c-7 -11 -46 -285 -151 -1056 -61 -448 -65 -478 -68 -482 -3 -2 -12 73 -112 975 -57 519 -57 524 -12 538 67 21 353 42 343 25z m639 -55 c248 -35 491 -70 542 -77 75 -9 96 -16 115 -36 28 -30 27 -36 -11 -303 -43 -300 -154 -1106 -166 -1210 -13 -103 -37 -121 -144 -108 -353 44 -1052 138 -1074 144 -9 3 -24 18 -31 33 -13 24 -11 54 19 272 19 134 48 348 66 474 17 127 46 336 64 465 18 129 36 263 40 297 9 84 32 113 88 113 23 0 245 -29 492 -64z m-1045 -561 c23 -203 54 -487 70 -629 17 -143 28 -261 26 -263 -2 -2 -13 25 -24 59 -12 35 -71 209 -132 388 -233 685 -260 766 -260 786 0 27 32 60 72 73 18 6 69 24 113 40 l80 28 7 -56 c4 -31 26 -222 48 -426z m233 -1133 c15 -2 27 -8 27 -13 0 -17 -48 -9 -71 12 -21 18 -21 20 -4 13 11 -4 32 -9 48 -12z m54 -9 c-4 -3 -10 -3 -14 0 -3 4 0 7 7 7 7 0 10 -3 7 -7z"></path> </g> </svg>